<svg width="435" height="596" viewBox="0 0 435 596" fill="none" xmlns="http://www.w3.org/2000/svg">
<circle cx="217.5" cy="217.5" r="210" stroke="white" stroke-width="15"/>
<circle cx="217.5" cy="217.5" r="132" stroke="white" stroke-width="15"/>
<path d="M223.49 168.175C221.522 164.121 219.65 160.31 217.992 156.983C216.337 160.306 214.467 164.112 212.502 168.16C209.315 174.796 206.047 181.079 203.358 185.868C202.019 188.254 200.779 190.346 199.737 191.953C199.222 192.747 198.694 193.519 198.182 194.181L198.155 194.216C197.84 194.624 196.875 195.876 195.482 196.76L195.457 196.776L195.431 196.792C194.644 197.283 193.898 197.55 193.654 197.637C193.284 197.769 192.915 197.88 192.598 197.97C191.957 198.151 191.203 198.334 190.409 198.513C188.803 198.876 186.703 199.299 184.312 199.75C179.512 200.658 173.296 201.73 166.982 202.755C162.053 203.554 157.034 204.33 152.549 204.98C155.051 207.48 157.917 210.291 161.013 213.268C170.127 222.03 175.504 227.299 178.528 230.947C180.088 232.829 181.404 234.72 182.25 236.823C183.171 239.112 183.315 241.103 183.315 242.709C183.315 244.745 182.724 249.271 182.012 254.161C181.254 259.375 180.224 265.849 179.129 272.338L179.122 272.376L179.116 272.414C178.501 275.843 177.935 279.125 177.438 282.093C180.595 280.46 184.161 278.582 187.915 276.567L187.93 276.559L187.945 276.552C194.422 273.113 200.695 269.963 205.634 267.656C208.093 266.508 210.298 265.531 212.067 264.827C212.944 264.478 213.81 264.157 214.598 263.911L214.608 263.908C215.126 263.746 216.498 263.319 217.992 263.319C219.456 263.319 220.808 263.728 221.327 263.885L221.333 263.887C222.12 264.125 222.988 264.438 223.872 264.78C225.655 265.471 227.876 266.43 230.353 267.566C235.322 269.844 241.613 272.968 248.055 276.424C251.823 278.424 255.378 280.3 258.521 281.942C258.03 279.014 257.473 275.785 256.869 272.414L256.862 272.376L256.856 272.338C255.761 265.849 254.731 259.375 253.972 254.161C253.261 249.271 252.669 244.745 252.669 242.709C252.669 241.051 252.835 239.051 253.778 236.763C254.639 234.676 255.965 232.797 257.522 230.929C260.547 227.303 265.912 222.042 274.952 213.286L274.962 213.277L274.971 213.268C278.071 210.287 280.949 207.475 283.464 204.976C278.989 204.327 273.978 203.553 269.055 202.755C262.733 201.73 256.505 200.658 251.694 199.751C249.298 199.299 247.194 198.877 245.585 198.514C244.789 198.335 244.034 198.152 243.392 197.971C243.074 197.881 242.705 197.77 242.334 197.638L242.334 197.638C242.091 197.551 241.342 197.284 240.554 196.792L240.528 196.776L240.502 196.76C239.107 195.874 238.144 194.623 237.829 194.213L237.803 194.18C237.293 193.518 236.768 192.749 236.258 191.96C235.227 190.364 234.002 188.285 232.673 185.911C230.003 181.142 226.738 174.864 223.49 168.175Z" stroke="white" stroke-width="15"/>
<path d="M99.9846 400.027C102.056 396.44 106.643 395.21 110.23 397.282V397.282C113.817 399.353 115.046 403.94 112.975 407.527L30.137 551.006C28.0659 554.594 23.479 555.823 19.8918 553.752V553.752C16.3046 551.681 15.0755 547.094 17.1466 543.506L99.9846 400.027Z" fill="white"/>
<path d="M175.25 421.495C177.321 417.908 181.908 416.679 185.495 418.75V418.75C189.082 420.821 190.311 425.408 188.24 428.995L95.7404 589.21C93.6693 592.797 89.0824 594.026 85.4952 591.955V591.955C81.908 589.884 80.6789 585.297 82.75 581.71L175.25 421.495Z" fill="white"/>
<path d="M314.746 413.998C312.675 410.41 313.904 405.824 317.491 403.752V403.752C321.078 401.681 325.665 402.91 327.736 406.498L406.882 543.582C408.953 547.169 407.724 551.756 404.137 553.827V553.827C400.55 555.898 395.963 554.669 393.892 551.082L314.746 413.998Z" fill="white"/>
<path d="M242.75 428.995C240.679 425.408 241.908 420.821 245.495 418.75V418.75C249.082 416.679 253.669 417.908 255.74 421.495L348.24 581.71C350.311 585.297 349.082 589.884 345.495 591.955V591.955C341.908 594.026 337.321 592.797 335.25 589.21L242.75 428.995Z" fill="white"/>
<path d="M335 516.5C335 512.358 338.358 509 342.5 509V509C346.642 509 350 512.358 350 516.5V584.5C350 588.642 346.642 592 342.5 592V592C338.358 592 335 588.642 335 584.5V516.5Z" fill="white"/>
<path d="M340.796 523.024C337.209 520.953 335.979 516.366 338.051 512.779V512.779C340.122 509.192 344.709 507.963 348.296 510.034L403.985 542.186C407.572 544.257 408.802 548.844 406.73 552.432V552.432C404.659 556.019 400.072 557.248 396.485 555.177L340.796 523.024Z" fill="white"/>
<path d="M85.1884 506.139C88.8484 504.2 93.3877 505.595 95.3272 509.255V509.255C97.2667 512.915 95.872 517.454 92.212 519.394L27.6505 553.606C23.9905 555.546 19.4512 554.151 17.5117 550.491V550.491C15.5722 546.831 16.9669 542.292 20.6269 540.352L85.1884 506.139Z" fill="white"/>
<path d="M82.7223 512.556C82.7581 508.414 86.1449 505.085 90.2869 505.121V505.121C94.4288 505.157 97.7575 508.544 97.7217 512.686L97.0995 584.626C97.0637 588.768 93.6769 592.097 89.5349 592.061V592.061C85.3929 592.025 82.0642 588.638 82.1001 584.496L82.7223 512.556Z" fill="white"/>
</svg>
